# xmcd CD database file
#
# Track frame offsets:
#	183
#	15083
#	28008
#	51208
#	71220
#	99443
#	125078
#	146153
#	170183
#	216540
#
# Disc length: 3429 seconds
#
# Revision: 1
# Processed by: cddbd v1.5.2PL0 Copyright (c) Steve Scherf et al.
# Submitted via: CDex 1.51
#
DISCID=990d630a
DTITLE=Abbey Lincoln - Abbey sings Billie Vol 1
DYEAR=1989
DGENRE=Jazz
TTITLE0=What A Little Moonlight Can Do
TTITLE1=I Only Have Eyes For You
TTITLE2=Gloomy Sunday
TTITLE3=Crazy He Calls Me
TTITLE4=Strange Fruit
TTITLE5=Lover Man
TTITLE6=These Foolish Things
TTITLE7=I'll Be Seeing You
TTITLE8=Soul Eyes
TTITLE9=I'll Wind
EXTD=YEAR: 1989
EXTT0=
EXTT1=
EXTT2=
EXTT3=
EXTT4=
EXTT5=
EXTT6=
EXTT7=
EXTT8=
EXTT9=
PLAYORDER=
